<svg width="48" height="48" viewBox="0 0 48 48" fill="none" xmlns="http://www.w3.org/2000/svg">
<g clip-path="url(#clip0_465_15532)">
<path d="M41.9689 22.0001C41.7089 22.0001 41.4529 21.8979 41.2617 21.7072L37.5549 18H31.9688C31.4158 18 30.9686 17.5521 30.9686 16.9999C30.9686 16.448 31.4158 16.0001 31.9688 16.0001H37.9688C38.2346 16.0001 38.4888 16.1049 38.6759 16.2931L40.9688 18.5859V16.9999C40.9688 16.448 41.4159 16.0001 41.9689 16.0001H42.9686C43.5209 16.0001 43.9688 15.5511 43.9688 15V3C43.9688 2.44885 43.5209 1.99988 42.9686 1.99988H21.9686C21.4178 1.99988 20.9689 2.44885 20.9689 3V15C20.9689 15.5511 21.4178 16.0001 21.9686 16.0001H23.9689C24.5208 16.0001 24.9686 16.448 24.9686 16.9999C24.9686 17.5521 24.5208 18 23.9689 18H21.9686C20.3148 18 18.9686 16.6542 18.9686 15V3C18.9686 1.34583 20.3148 0 21.9686 0H42.9686C44.6228 0 45.9686 1.34583 45.9686 3V15C45.9686 16.6542 44.6228 18 42.9686 18V21C42.9686 21.4039 42.7258 21.769 42.3519 21.924C42.2278 21.9749 42.0978 22.0001 41.9689 22.0001Z" fill="#2E2E2E"/>
<path d="M5.96887 25.9998C5.8396 25.9998 5.70959 25.976 5.58582 25.924C5.21265 25.7698 4.96875 25.4039 4.96875 25V22C3.31458 22 1.96875 20.6538 1.96875 19V7C1.96875 5.34583 3.31458 4 4.96875 4H15.9686C16.5209 4 16.9688 4.44788 16.9688 4.99976C16.9688 5.552 16.5209 5.99988 15.9686 5.99988H4.96875C4.4176 5.99988 3.96863 6.44885 3.96863 7V19C3.96863 19.5508 4.4176 19.9998 4.96875 19.9998H5.96887C6.52075 19.9998 6.96863 20.448 6.96863 20.9999V22.5859L9.26184 20.2927C9.44861 20.1049 9.70386 19.9998 9.96863 19.9998H25.9688C26.5206 19.9998 26.9689 19.5508 26.9689 19V7C26.9689 6.44885 26.5206 5.99988 25.9688 5.99988H23.9689C23.4166 5.99988 22.9688 5.552 22.9688 4.99976C22.9688 4.44788 23.4166 4 23.9689 4H25.9688C27.6229 4 28.9688 5.34583 28.9688 7V19C28.9688 20.6538 27.6229 22 25.9688 22H10.3828L6.67566 25.7068C6.48486 25.898 6.22888 25.9998 5.96887 25.9998Z" fill="#2E2E2E"/>
<path d="M10.9688 37.9998C8.21191 37.9998 5.96887 35.7567 5.96887 32.9999V31C5.96887 28.2428 8.21191 25.9998 10.9688 25.9998C13.7256 25.9998 15.9686 28.2428 15.9686 31V32.9999C15.9686 35.7567 13.7256 37.9998 10.9688 37.9998ZM10.9688 28C9.31458 28 7.96875 29.3458 7.96875 31V32.9999C7.96875 34.6541 9.31458 35.9999 10.9688 35.9999C12.6229 35.9999 13.9688 34.6541 13.9688 32.9999V31C13.9688 29.3458 12.6229 28 10.9688 28Z" fill="#2E2E2E"/>
<path d="M13.9706 48H7.96692C4.59192 47.9989 2.35474 45.8009 2.26172 45.7072C2.07385 45.52 1.96875 45.2659 1.96875 45V41.5349C1.96875 40.8629 2.30164 40.2411 2.86084 39.8701L7.96875 36.4651V36H9.96863V37.0001C9.96863 37.3341 9.80164 37.6461 9.52368 37.8322L3.96863 41.5349V44.543C4.56885 45.0168 6.04285 45.999 7.96765 46.0001H13.9706C15.9137 45.999 17.3738 45.0209 17.9689 44.547V41.5349L12.4138 37.8322C12.1359 37.6461 11.9689 37.3341 11.9689 37.0001V36H13.9688V36.4651L19.0789 39.8708C19.6366 40.2429 19.9688 40.8651 19.9688 41.5349V45C19.9688 45.2659 19.8636 45.52 19.6758 45.7072C19.5828 45.8009 17.3448 47.9989 13.9706 48Z" fill="#2E2E2E"/>
<path d="M36.9686 37.9998C34.2118 37.9998 31.9688 35.7567 31.9688 32.9999V31C31.9688 28.2428 34.2118 25.9998 36.9686 25.9998C39.7258 25.9998 41.9689 28.2428 41.9689 31V32.9999C41.9689 35.7567 39.7258 37.9998 36.9686 37.9998ZM36.9686 28C35.3148 28 33.9686 29.3458 33.9686 31V32.9999C33.9686 34.6541 35.3148 35.9999 36.9686 35.9999C38.6228 35.9999 39.9686 34.6541 39.9686 32.9999V31C39.9686 29.3458 38.6228 28 36.9686 28Z" fill="#2E2E2E"/>
<path d="M39.9708 48H33.9668C30.5918 47.9989 28.3557 45.8009 28.2616 45.7072C28.0737 45.52 27.9686 45.2659 27.9686 45V41.5349C27.9686 40.8629 28.3026 40.24 28.8618 39.8701L33.9686 36.4651V36H35.9689V37.0001C35.9689 37.3341 35.8019 37.6461 35.5239 37.8322L29.9689 41.5349V44.543C30.5687 45.0179 32.0427 45.999 33.9668 46.0001H39.9708C41.9136 45.999 43.3737 45.0209 43.9688 44.547V41.5349L38.4137 37.8322C38.1357 37.6461 37.9688 37.3341 37.9688 37.0001V36H39.9686V36.4651L45.0776 39.8708C45.6357 40.2429 45.9686 40.8651 45.9686 41.5349V45C45.9686 45.2659 45.8639 45.52 45.6757 45.7072C45.5819 45.8009 43.3458 47.9989 39.9708 48Z" fill="#2E2E2E"/>
<path d="M22.9688 25.9998H24.9686V28H22.9688V25.9998Z" fill="#2E2E2E"/>
<path d="M18.9686 25.9998H20.9689V28H18.9686V25.9998Z" fill="#2E2E2E"/>
<path d="M26.9689 25.9998H28.9688V28H26.9689V25.9998Z" fill="#2E2E2E"/>
</g>
<defs>
<clipPath id="clip0_465_15532">
<rect width="48" height="48" fill="white"/>
</clipPath>
</defs>
</svg>
