<svg width="48" height="48" viewBox="0 0 48 48" fill="none" xmlns="http://www.w3.org/2000/svg">
<g id="idea 1" clip-path="url(#clip0_465_15549)">
<g id="Group">
<g id="Group_2">
<path id="Vector" d="M39.5892 18.3321C39.223 17.9661 38.6294 17.9661 38.2633 18.3321C37.8972 18.6983 37.8972 19.2919 38.2633 19.658C38.2777 19.6725 38.2927 19.6872 38.3072 19.7007C38.4882 19.8701 38.7183 19.9539 38.948 19.9539C39.1981 19.9539 39.4479 19.8542 39.6324 19.6573C39.9864 19.2795 39.967 18.6861 39.5892 18.3321Z" fill="#2E2E2E"/>
</g>
</g>
<g id="Group_3">
<g id="Group_4">
<path id="Vector_2" d="M37.6845 16.7924C37.1478 16.4279 36.5969 16.1029 36.0469 15.8261C32.9358 14.2605 29.6389 13.9463 26.5125 14.9172C26.0181 15.0708 25.7416 15.5961 25.8952 16.0905C26.0488 16.5851 26.5739 16.8613 27.0686 16.7078C29.7221 15.8836 32.5353 16.1579 35.2039 17.5008C35.6746 17.7379 36.1682 18.0295 36.6314 18.3436C36.7927 18.4531 36.9758 18.5057 37.157 18.5057C37.4572 18.5057 37.7522 18.3618 37.9335 18.0946C38.2244 17.6663 38.1128 17.0832 37.6845 16.7924Z" fill="#2E2E2E"/>
</g>
</g>
<g id="Group_5">
<g id="Group_6">
<path id="Vector_3" d="M46.2135 28.9245C45.8292 28.1183 45.1927 26.7831 45.1813 26.3415C46.2776 23.6392 45.8776 20.6489 44.0516 17.9135C41.2435 13.7067 35.4882 10.6533 30.3669 10.6533C27.6598 10.6533 25.0164 11.2989 22.6381 12.5312C21.9558 8.79274 18.6772 5.94922 14.7448 5.94922C10.3192 5.94922 6.71887 9.54958 6.71887 13.975C6.71887 16.7906 8.1538 19.3506 10.557 20.823C11.2498 21.2475 11.4065 21.6144 11.4622 22.2156V25.4165V27.7015C11.4622 28.7483 12.3137 29.5999 13.3602 29.5999H13.6789C14.1939 33.7039 16.1801 37.43 19.3329 40.1719C19.3626 40.2645 19.4493 40.6986 19.0768 41.994C18.7866 43.0031 18.3413 44.1241 17.9486 45.1131C17.6857 45.7749 17.4586 46.3465 17.3214 46.7787C17.2309 47.0636 17.2817 47.3746 17.4583 47.6161C17.6349 47.8574 17.916 48.0001 18.2149 48.0001H31.5972C32.0369 48.0001 32.6408 47.8032 33.021 46.8652C33.1865 46.457 33.2945 45.966 33.4089 45.4459C33.5203 44.9393 33.7815 43.7527 34.0412 43.6094C34.0414 43.6094 34.0565 43.6068 34.0932 43.6125C34.1413 43.6202 34.1899 43.6238 34.2387 43.6238C35.6402 43.6238 36.7853 43.6874 37.7957 43.7433C40.759 43.9078 42.5477 44.0071 44.1168 41.747C44.9148 40.5974 44.8243 38.9209 44.7286 37.1459C44.6793 36.2311 44.6284 35.2869 44.7188 34.5019C44.8824 34.3407 45.2921 34.0595 45.5489 33.8831C46.4327 33.2761 47.2674 32.703 47.2674 31.8316C47.2677 31.1693 46.8671 30.2954 46.2135 28.9245ZM11.5367 19.224C9.69402 18.0952 8.59396 16.1331 8.59396 13.9749C8.59396 10.5833 11.3533 7.82412 14.7449 7.82412C18.1365 7.82412 20.8958 10.5834 20.8958 13.9749C20.8958 16.1331 19.7958 18.0953 17.9531 19.2242C17.0774 19.7609 16.5569 20.3868 16.3098 21.2327L14.7446 21.2321L13.1801 21.2327C12.9329 20.3869 12.4125 19.7609 11.5367 19.224ZM16.1525 23.1078V24.4789H13.3374V23.1078H16.1525ZM13.3604 27.7248C13.35 27.7248 13.3374 27.7119 13.3374 27.7014V26.3539H16.1525V27.7014C16.1525 27.712 16.1399 27.7248 16.1293 27.7248H13.3604ZM44.4878 32.3373C43.6809 32.8916 42.9839 33.37 42.8812 34.0942C42.74 35.0875 42.7993 36.1853 42.8564 37.2467C42.9275 38.5636 43.0079 40.0563 42.5767 40.6775C41.6439 42.0214 40.8371 42.0344 37.8996 41.8712C36.9304 41.8174 35.7278 41.7507 34.302 41.7486C33.7544 41.6841 32.8279 41.7869 32.2096 42.9889C31.8955 43.5992 31.7268 44.3661 31.5779 45.0427C31.5031 45.3827 31.398 45.8605 31.2996 46.1249H19.5645C19.6056 46.0213 19.648 45.9145 19.6915 45.805C21.042 42.4044 21.8974 39.9103 20.5954 38.7847C17.8358 36.398 16.0759 33.166 15.5713 29.5998H16.1294C17.1761 29.5998 18.0276 28.7482 18.0276 27.7014V25.4164V22.2174C18.0832 21.6151 18.2395 21.2478 18.9329 20.8229C21.152 19.4633 22.5444 17.1761 22.7448 14.6168C25.0458 13.2495 27.6704 12.5282 30.367 12.5282C34.834 12.5282 40.0468 15.2909 42.4922 18.9544C43.5404 20.5246 44.5528 22.9672 43.4233 25.6869C43.0554 26.5725 43.6008 27.8009 44.5211 29.7313C44.819 30.3563 45.2503 31.261 45.3644 31.6836C45.1707 31.8684 44.7543 32.1543 44.4878 32.3373Z" fill="#2E2E2E"/>
</g>
</g>
<g id="Group_7">
<g id="Group_8">
<path id="Vector_4" d="M19.3435 12.6503C19.0666 11.6242 18.3784 10.8024 17.3531 10.2733C16.8929 10.0362 16.3275 10.2166 16.0901 10.6769C15.8528 11.1371 16.0333 11.7025 16.4936 11.9398C17.0533 12.2286 17.3935 12.6208 17.5332 13.1386C17.7543 13.9583 17.4198 14.8453 17.273 15.0757C16.9947 15.5123 17.123 16.0919 17.5596 16.3702C17.7158 16.4699 17.8902 16.5172 18.0626 16.5172C18.3723 16.5172 18.6753 16.3641 18.854 16.0836C19.2539 15.4566 19.7142 14.0244 19.3435 12.6503Z" fill="#2E2E2E"/>
</g>
</g>
<g id="Group_9">
<g id="Group_10">
<path id="Vector_5" d="M14.7449 0C14.2271 0 13.8074 0.419905 13.8074 0.937496V3.61011C13.8074 4.1277 14.2271 4.54761 14.7449 4.54761C15.2626 4.54761 15.6824 4.1277 15.6824 3.61011V0.937496C15.6824 0.419905 15.2626 0 14.7449 0Z" fill="#2E2E2E"/>
</g>
</g>
<g id="Group_11">
<g id="Group_12">
<path id="Vector_6" d="M4.34278 13.0747H1.67016C1.15238 13.0747 0.732666 13.4946 0.732666 14.0122C0.732666 14.53 1.15238 14.9497 1.67016 14.9497H4.34287C4.86056 14.9497 5.28027 14.53 5.28027 14.0122C5.28027 13.4946 4.86046 13.0747 4.34278 13.0747Z" fill="#2E2E2E"/>
</g>
</g>
<g id="Group_13">
<g id="Group_14">
<path id="Vector_7" d="M10.3553 4.53409L9.01937 2.22054C8.76044 1.77213 8.18697 1.61867 7.73866 1.87741C7.29035 2.13635 7.13669 2.70963 7.39563 3.15803L8.73156 5.47159C8.90528 5.77243 9.22028 5.94052 9.54428 5.94052C9.70337 5.94052 9.86462 5.90002 10.0122 5.81471C10.4606 5.55577 10.6142 4.9825 10.3553 4.53409Z" fill="#2E2E2E"/>
</g>
</g>
<g id="Group_15">
<g id="Group_16">
<path id="Vector_8" d="M6.20419 7.99919L3.89036 6.66326C3.44205 6.40451 2.86858 6.55817 2.60974 7.00639C2.3508 7.45479 2.50446 8.02807 2.95286 8.28701L5.2667 9.62294C5.41426 9.70825 5.57551 9.74875 5.73451 9.74875C6.0585 9.74875 6.3736 9.58066 6.54731 9.27981C6.80625 8.8316 6.6526 8.25813 6.20419 7.99919Z" fill="#2E2E2E"/>
</g>
</g>
<g id="Group_17">
<g id="Group_18">
<path id="Vector_9" d="M26.8804 7.00627C26.6214 6.55786 26.0481 6.40421 25.5998 6.66314L23.2859 7.99907C22.8375 8.25801 22.6839 8.83148 22.9428 9.27969C23.1164 9.58054 23.4315 9.74863 23.7555 9.74863C23.9145 9.74863 24.0758 9.70813 24.2234 9.62282L26.5373 8.28689C26.9857 8.02795 27.1393 7.45467 26.8804 7.00627Z" fill="#2E2E2E"/>
</g>
</g>
<g id="Group_19">
<g id="Group_20">
<path id="Vector_10" d="M6.54773 18.745C6.28898 18.2966 5.71579 18.1431 5.26729 18.4017L2.9529 19.7376C2.50449 19.9964 2.35074 20.5698 2.60959 21.0183C2.78321 21.3191 3.0984 21.4872 3.4224 21.4872C3.58139 21.4872 3.74255 21.4467 3.89021 21.3616L6.20451 20.0256C6.65291 19.7669 6.80666 19.1934 6.54773 18.745Z" fill="#2E2E2E"/>
</g>
</g>
<g id="Group_21">
<g id="Group_22">
<path id="Vector_11" d="M9.81936 22.5436C9.37115 22.2849 8.79768 22.4385 8.53874 22.8868L7.39556 24.867C7.13672 25.3154 7.29037 25.8889 7.73878 26.1477C7.88643 26.233 8.04759 26.2735 8.20659 26.2735C8.53059 26.2735 8.84577 26.1054 9.0194 25.8045L10.1626 23.8243C10.4215 23.3758 10.2679 22.8026 9.81936 22.5436Z" fill="#2E2E2E"/>
</g>
</g>
<g id="Group_23">
<g id="Group_24">
<path id="Vector_12" d="M21.7513 1.87725C21.3028 1.61832 20.7297 1.77197 20.4707 2.22038L19.1348 4.53393C18.8758 4.98234 19.0294 5.55571 19.4778 5.81455C19.6255 5.89986 19.7867 5.94036 19.9457 5.94036C20.2697 5.94036 20.5848 5.77227 20.7585 5.47143L22.0945 3.15787C22.3534 2.70947 22.1997 2.13619 21.7513 1.87725Z" fill="#2E2E2E"/>
</g>
</g>
</g>
<defs>
<clipPath id="clip0_465_15549">
<rect width="48" height="48" fill="white"/>
</clipPath>
</defs>
</svg>
